<?xml version="1.0" standalone="no"?>
<!DOCTYPE svg PUBLIC "-//W3C//DTD SVG 20010904//EN"
 "http://www.w3.org/TR/2001/REC-SVG-20010904/DTD/svg10.dtd">
<svg version="1.0" xmlns="http://www.w3.org/2000/svg"
 width="100.000000pt" height="100.000000pt" viewBox="0 0 100.000000 100.000000"
 preserveAspectRatio="xMidYMid meet">

<g transform="translate(0.000000,100.000000) scale(0.100000,-0.100000)"
fill="#000000" stroke="none">
<path d="M440 923 c-48 -25 -69 -83 -51 -142 15 -52 50 -76 113 -76 40 0 53 5
80 33 28 28 33 39 33 82 0 42 -5 54 -31 81 -39 39 -94 48 -144 22z m115 -48
c50 -49 15 -135 -55 -135 -41 0 -80 39 -80 80 0 41 39 80 80 80 19 0 40 -9 55
-25z"/>
<path d="M369 646 c-37 -6 -74 -17 -82 -24 -25 -21 -109 -242 -102 -269 8 -34
49 -57 88 -49 l32 6 -35 -31 c-19 -17 -52 -45 -72 -63 -49 -42 -52 -84 -9
-127 l29 -29 282 0 282 0 29 29 c20 20 29 39 29 61 0 33 -16 52 -100 122 l-45
37 32 -6 c39 -7 80 16 88 50 9 33 -81 254 -109 272 -26 16 -146 35 -218 34
-29 0 -83 -6 -119 -13z m241 -37 c36 -5 70 -15 77 -22 14 -14 93 -204 93 -224
0 -25 -25 -24 -152 7 l-126 30 -128 -30 c-129 -31 -154 -32 -154 -7 0 20 79
210 93 224 27 28 189 40 297 22z m-43 -266 c52 -12 74 -22 79 -35 3 -10 39
-45 80 -79 76 -62 87 -84 58 -113 -14 -14 -43 -16 -207 -14 l-192 3 0 25 c0
24 5 26 110 48 114 23 137 34 118 53 -8 8 -41 5 -119 -12 -124 -25 -158 -46
-152 -91 5 -28 4 -28 -53 -28 -61 0 -89 16 -89 50 0 12 28 42 71 76 38 31 75
66 81 78 9 22 17 25 138 55 3 1 38 -6 77 -16z"/>
<path d="M482 591 c-7 -4 -19 -27 -26 -51 -12 -40 -17 -45 -71 -64 -58 -21
-79 -41 -53 -51 8 -3 43 5 78 17 56 20 65 27 74 56 5 17 12 32 16 32 4 0 11
-15 16 -32 9 -29 18 -36 74 -56 35 -12 70 -20 78 -17 26 10 5 30 -53 51 -54
19 -59 24 -71 64 -11 38 -27 60 -44 60 -3 0 -11 -4 -18 -9z"/>
</g>
</svg>
